<?xml version="1.0" standalone="no"?>
<!DOCTYPE svg PUBLIC "-//W3C//DTD SVG 20010904//EN"
 "http://www.w3.org/TR/2001/REC-SVG-20010904/DTD/svg10.dtd">
<svg version="1.0" xmlns="http://www.w3.org/2000/svg"
 width="500.000000pt" height="500.000000pt" viewBox="0 0 500.000000 500.000000"
 preserveAspectRatio="xMidYMid meet">

<g transform="translate(0.000000,500.000000) scale(0.100000,-0.100000)"
fill="#000000" stroke="none">
<path d="M285 3501 c-186 -87 -193 -357 -10 -446 113 -56 254 -17 318 87 53
85 47 203 -13 285 -62 85 -199 119 -295 74z m166 -16 c148 -51 197 -237 91
-348 -109 -115 -288 -85 -353 58 -26 57 -24 121 6 181 28 56 69 91 129 110 55
17 74 17 127 -1z"/>
<path d="M360 3446 c0 -29 11 -44 31 -39 26 7 24 17 -6 37 -21 14 -25 14 -25
2z"/>
<path d="M433 3442 c11 -11 26 -18 34 -15 17 7 7 18 -27 28 -25 8 -25 7 -7
-13z"/>
<path d="M301 3409 c-9 -27 -8 -30 5 -25 9 3 19 6 23 6 5 0 6 11 3 25 -6 34
-18 31 -31 -6z"/>
<path d="M240 3390 c-20 -29 -18 -38 6 -22 10 6 26 52 19 52 -2 0 -13 -13 -25
-30z"/>
<path d="M492 3402 c-17 -3 -22 -8 -17 -20 4 -9 10 -25 12 -35 4 -11 11 -16
20 -13 8 3 21 6 29 6 19 0 18 24 -3 47 -11 12 -27 18 -41 15z"/>
<path d="M392 3371 c-21 -13 -4 -61 22 -61 37 0 48 13 37 43 -11 27 -34 34
-59 18z"/>
<path d="M307 3353 c-14 -4 -17 -13 -15 -36 3 -29 6 -32 33 -29 38 4 38 5 30
41 -6 31 -12 33 -48 24z"/>
<path d="M235 3332 c-25 -5 -35 -20 -35 -53 0 -23 3 -26 26 -21 29 5 37 19 32
54 -2 17 -8 22 -23 20z"/>
<path d="M515 3304 c-6 -2 -9 -19 -7 -38 4 -31 6 -33 30 -27 21 6 28 14 30 39
3 28 0 32 -20 31 -13 0 -28 -3 -33 -5z"/>
<path d="M433 3283 c-24 -5 -31 -35 -14 -61 12 -19 61 -5 61 18 0 24 -10 50
-19 49 -3 -1 -16 -4 -28 -6z"/>
<path d="M328 3253 c-20 -5 -22 -12 -9 -46 8 -20 15 -23 35 -20 34 7 38 15 26
47 -9 25 -17 28 -52 19z"/>
<path d="M238 3228 c-27 -9 -27 -10 -12 -40 10 -19 20 -28 30 -24 9 3 22 6 30
6 11 0 11 5 2 28 -17 39 -20 41 -50 30z"/>
<path d="M529 3203 c-10 -2 -19 -17 -21 -34 l-5 -30 23 28 c19 23 31 46 22 42
-2 -1 -10 -3 -19 -6z"/>
<path d="M447 3183 c-14 -4 -17 -11 -13 -26 3 -12 6 -25 6 -29 0 -20 19 -5 29
23 15 44 17 42 -22 32z"/>
<path d="M373 3162 c-30 -4 -29 -18 2 -38 30 -20 40 -14 29 18 -7 16 -15 22
-31 20z"/>
<path d="M280 3135 c0 -5 56 -35 66 -35 4 0 -1 9 -11 20 -16 17 -55 28 -55 15z"/>
<path d="M270 2140 l0 -650 125 0 125 0 0 650 0 650 -125 0 -125 0 0 -650z"/>
</g>
</svg>
